HIERARCHY
ROOT Pelvis
{
	OFFSET 0.000000 0.000000 0.000000
	CHANNELS 6 Xposition Yposition Zposition Xrotation Yrotation Zrotation
	JOINT LeftUpLeg_virtual
	{
		OFFSET 0.000000 0.000000 0.000000
		CHANNELS 3 Xrotation Yrotation Zrotation
		JOINT LeftUpLeg
		{
			OFFSET 18.735201 -5.666702 -4.541200
			CHANNELS 3 Xrotation Yrotation Zrotation
			JOINT LeftLeg
			{
				OFFSET -0.021200 -31.938179 0.493100
				CHANNELS 3 Xrotation Yrotation Zrotation
				JOINT LeftFoot
				{
					OFFSET 0.021200 -31.938179 -4.336299
					CHANNELS 3 Xrotation Yrotation Zrotation
					JOINT LeftToeBase
					{
						OFFSET 0.943001 -26.722000 15.023500
						CHANNELS 3 Xrotation Yrotation Zrotation
						End Site
						{
							OFFSET 0 0 0
						}
					}
				}
			}
		}
	}
	JOINT RightUpLeg_virtual
	{
		OFFSET 0.000000 0.000000 0.000000
		CHANNELS 3 Xrotation Yrotation Zrotation
		JOINT RightUpLeg
		{
			OFFSET -18.735201 -5.666702 -4.541200
			CHANNELS 3 Xrotation Yrotation Zrotation
			JOINT RightLeg
			{
				OFFSET 0.018946 -31.938133 0.493100
				CHANNELS 3 Xrotation Yrotation Zrotation
				JOINT RightFoot
				{
					OFFSET -0.018946 -31.938126 -4.336299
					CHANNELS 3 Xrotation Yrotation Zrotation
					JOINT RightToeBase
					{
						OFFSET -0.943001 -26.722004 15.023500
						CHANNELS 3 Xrotation Yrotation Zrotation
						End Site
						{
							OFFSET 0 0 0
						}
					}
				}
			}
		}
	}
	JOINT Hips_virtual
	{
		OFFSET 0.000000 0.000000 0.000000
		CHANNELS 3 Xrotation Yrotation Zrotation
		JOINT Hips
		{
			OFFSET -0.000000 -0.000000 -0.000000
			CHANNELS 3 Xrotation Yrotation Zrotation
			JOINT Spine
			{
				OFFSET 0.000000 10.199997 -0.299500
				CHANNELS 3 Xrotation Yrotation Zrotation
				JOINT Spine1
				{
					OFFSET 0.000000 11.900002 -1.516600
					CHANNELS 3 Xrotation Yrotation Zrotation
					JOINT Spine2
					{
						OFFSET 0.000000 13.600006 -2.842500
						CHANNELS 3 Xrotation Yrotation Zrotation
						JOINT Neck_virtual
						{
							OFFSET 0.000000 0.000000 0.000000
							CHANNELS 3 Xrotation Yrotation Zrotation
							JOINT Neck
							{
								OFFSET 0.000000 9.624100 -2.890100
								CHANNELS 3 Xrotation Yrotation Zrotation
								JOINT Head
								{
									OFFSET 0.000000 14.068802 -1.351900
									CHANNELS 3 Xrotation Yrotation Zrotation
									End Site
									{
										OFFSET 0 0 0
									}
								}
							}
						}
						JOINT LeftShoulder_virtual
						{
							OFFSET 0.000000 0.000000 0.000000
							CHANNELS 3 Xrotation Yrotation Zrotation
							JOINT LeftShoulder
							{
								OFFSET 15.263000 10.923401 -0.547700
								CHANNELS 3 Xrotation Yrotation Zrotation
								JOINT LeftArm
								{
									OFFSET 25.438599 -2.830597 -13.032500
									CHANNELS 3 Xrotation Yrotation Zrotation
									JOINT LeftForeArm
									{
										OFFSET 29.960503 0.000000 0.000000
										CHANNELS 3 Xrotation Yrotation Zrotation
										JOINT LeftHand
										{
											OFFSET 27.849251 0.000000 0.000000
											CHANNELS 3 Xrotation Yrotation Zrotation
											End Site
											{
												OFFSET 0 0 0
											}
										}
									}
								}
							}
						}
						JOINT RightShoulder_virtual
						{
							OFFSET 0.000000 0.000000 0.000000
							CHANNELS 3 Xrotation Yrotation Zrotation
							JOINT RightShoulder
							{
								OFFSET -15.263000 10.923401 -0.547700
								CHANNELS 3 Xrotation Yrotation Zrotation
								JOINT RightArm
								{
									OFFSET -25.438599 -2.830597 -13.032500
									CHANNELS 3 Xrotation Yrotation Zrotation
									JOINT RightForeArm
									{
										OFFSET -29.960503 0.000000 0.000000
										CHANNELS 3 Xrotation Yrotation Zrotation
										JOINT RightHand
										{
											OFFSET -27.849251 0.000000 0.000000
											CHANNELS 3 Xrotation Yrotation Zrotation
											End Site
											{
												OFFSET 0 0 0
											}
										}
									}
								}
							}
						}
					}
				}
			}
		}
	}
}
MOTION
Frames: 4
Frame Time: 0.03333333
-5.935015 98.680298 185.044434 0.000000 0.000000 0.000000 19.865171 8.853737 -0.874676 -25.666184 9.066043 13.355267 50.570581 18.414398 -0.612531 19.449607 -0.829173 5.160759 0.000000 0.000000 0.000000 19.865171 8.853737 -0.874676 -67.166489 -24.965806 -14.879477 41.554830 3.268075 -12.729386 37.736717 2.190754 2.135430 0.000000 0.000000 0.000000 19.865171 8.853737 -0.874676 0.000000 0.000001 0.000000 -2.297627 -0.620337 0.032677 -4.594410 -1.061327 0.101277 0.000000 0.000000 0.000000 -4.594413 -1.061325 0.101278 -0.990492 0.565844 -1.144411 0.000000 0.000000 0.000000 -4.594413 -1.061325 0.101278 10.044626 0.256261 32.051216 -48.561709 -10.210819 11.799409 -38.609881 -41.548505 -5.423206 0.000000 0.000000 0.000000 -4.594413 -1.061325 0.101278 -8.323181 -24.135445 -40.312688 -89.460356 26.675446 38.968241 -28.899589 50.290871 -7.128680 0.000000 0.000000 0.000000 
-5.950953 97.108414 188.945251 0.000000 0.000000 0.000000 17.727657 9.494088 -1.022153 -24.162149 7.358377 12.991664 49.561062 20.169241 -1.939721 18.247991 -1.313870 4.706957 0.000000 0.000000 0.000000 17.727657 9.494088 -1.022153 -68.292077 -24.576619 -14.676622 43.539936 2.777236 -13.082339 36.951549 1.148575 0.636326 0.000000 0.000000 0.000000 17.727657 9.494088 -1.022153 -0.000001 0.000000 0.000000 -2.114317 -0.716283 0.009651 -4.226089 -1.236036 0.160241 0.000000 0.000000 0.000000 -4.226096 -1.236038 0.160240 -0.699730 0.603230 -1.022430 0.000000 0.000000 0.000000 -4.226096 -1.236038 0.160240 9.560694 1.178735 31.958605 -47.982140 -11.494728 12.850403 -37.736191 -39.139576 -4.480669 0.000000 0.000000 0.000000 -4.226096 -1.236038 0.160240 -8.892187 -24.277771 -41.378242 -86.632719 27.564752 36.099408 -30.016588 48.103567 -7.287929 0.000000 0.000000 0.000000 
-5.937153 95.568420 192.708099 0.000000 0.000000 0.000000 15.551337 10.167361 -1.160042 -23.857728 5.111393 12.486354 50.207290 21.306649 -3.222593 16.275291 -1.846342 3.437566 0.000000 0.000000 0.000000 15.551337 10.167361 -1.160042 -69.309905 -24.196075 -14.395395 46.140773 2.214108 -13.791097 35.622671 0.142061 -0.479134 0.000000 0.000000 0.000000 15.551337 10.167361 -1.160042 0.000001 0.000000 0.000000 -1.882071 -0.833763 -0.009167 -3.758563 -1.458368 0.264352 0.000000 0.000000 0.000000 -3.758560 -1.458363 0.264352 -0.481906 0.608975 -0.908316 0.000000 0.000000 0.000000 -3.758560 -1.458363 0.264352 9.718427 1.273664 32.721920 -47.199838 -10.995441 14.448374 -37.509353 -36.402958 -3.708633 0.000000 0.000000 0.000000 -3.758560 -1.458363 0.264352 -8.350553 -23.530586 -42.083200 -83.150108 28.065850 30.864604 -31.664378 45.607471 -6.457744 0.000000 0.000000 0.000000 
-5.912010 94.783394 196.287109 0.000000 0.000000 0.000000 13.422964 10.864878 -1.329557 -24.464201 4.394051 11.755972 49.793165 20.761241 -3.044214 14.642192 -2.227315 2.072583 0.000000 0.000000 0.000000 13.422964 10.864878 -1.329557 -68.763913 -24.289029 -14.279822 46.426076 1.420406 -13.660906 34.949764 -0.210526 -2.352325 0.000000 0.000000 0.000000 13.422964 10.864878 -1.329557 0.000000 0.000000 0.000000 -1.575954 -0.977393 0.032653 -3.141671 -1.730182 0.476075 0.000000 0.000000 0.000000 -3.141673 -1.730181 0.476075 -0.433598 0.550090 -0.905506 0.000000 0.000000 0.000000 -3.141673 -1.730181 0.476075 10.358788 0.430481 33.938650 -46.303041 -6.882811 15.495935 -38.881859 -37.359499 -3.729813 0.000000 0.000000 0.000000 -3.141673 -1.730181 0.476075 -7.764606 -22.718971 -42.791111 -79.909757 26.708357 26.192527 -32.094711 45.832830 -5.888943 0.000000 0.000000 0.000000 
